<svg xmlns="http://www.w3.org/2000/svg" viewBox="0 0 48.86 16.9">
    <path d="M21.03 15.48v-4.44l-2.01 2.18z" />
    <path
        d="M48.2 12.42a.9.9 0 0 0 .42-.76v-1.21a.92.92 0 0 0-.91-.92h-2.65a2.9 2.9 0 0 0-1.88.61.91.91 0 0 0-.84-.61h-2.62A3 3 0 0 0 38 10a.89.89 0 0 0-.77-.48h-4.38a.9.9 0 0 0-.8.51l-.17-.14a4.06 4.06 0 0 0-2-.37h-3a.89.89 0 0 0-.8.51 3.6 3.6 0 0 0-2-.51h-4.22a.88.88 0 0 0-.66.29l-1 1.08-.95-1.06a.89.89 0 0 0-.68-.31h-5.25a.91.91 0 0 0-.9.92V16a.91.91 0 0 0 .9.92h5.18a.9.9 0 0 0 .67-.3l1-1.09.94 1.08a.9.9 0 0 0 .68.31h2.54a.92.92 0 0 0 .91-.92v-1H24a3.76 3.76 0 0 0 2-.47V16a.92.92 0 0 0 .91.92h1.31a.92.92 0 0 0 .91-.92v-1.13h.76V16a.91.91 0 0 0 .9.92h1.32a.83.83 0 0 0 .4-.11.9.9 0 0 0 .39.11h4.37a.9.9 0 0 0 .39-.1.9.9 0 0 0 .4.1h2.54a3.3 3.3 0 0 0 2-.56.91.91 0 0 0 .83.56h2.47c1.85 0 3-1 3-2.67a2.45 2.45 0 0 0-.7-1.83M24 14.12h-1.67V16h-2.54l-1.61-1.83L16.5 16h-5.18v-5.56h5.26l1.61 1.82 1.67-1.82H24c1 0 2.2.3 2.2 1.83s-1.09 1.86-2.2 1.85m7.23-.71a1.37 1.37 0 0 1 .64.47 1.62 1.62 0 0 1 .21 1V16h-1.34v-.69c0-.33 0-.83-.21-1.08s-.48-.25-1-.25h-1.4v2h-1.27v-5.53h3a3.1 3.1 0 0 1 1.57.26 1.28 1.28 0 0 1 .68 1.22 1.56 1.56 0 0 1-.91 1.48Zm6-1.82h-3.08v1h3v1.13h-3v1.1h3.07V16h-4.37v-5.55h4.37ZM40.55 16H38v-1.21h2.53a.74.74 0 0 0 .54-.14.48.48 0 0 0 .15-.36.5.5 0 0 0-.16-.37.72.72 0 0 0-.47-.12c-1.22 0-2.75 0-2.75-1.71a1.63 1.63 0 0 1 1.87-1.65h2.62v1.18h-2.4a.86.86 0 0 0-.52.1.41.41 0 0 0-.2.4.42.42 0 0 0 .28.41 1.5 1.5 0 0 0 .51.06h.71a2.12 2.12 0 0 1 1.49.45 1.53 1.53 0 0 1 .39 1.17c.01 1.22-.72 1.79-2.04 1.79m5.35 0h-2.55v-1.21h2.54a.72.72 0 0 0 .53-.14.48.48 0 0 0 .15-.36.5.5 0 0 0-.15-.37.74.74 0 0 0-.42-.12c-1.22 0-2.76 0-2.76-1.71a1.64 1.64 0 0 1 1.88-1.65h2.62v1.18h-2.4a.9.9 0 0 0-.53.1.43.43 0 0 0-.19.4.42.42 0 0 0 .28.41 1.5 1.5 0 0 0 .51.06h.7a2.15 2.15 0 0 1 1.5.45 1.57 1.57 0 0 1 .39 1.19c0 1.2-.79 1.77-2.1 1.77" />
    <path
        d="M24 11.59h-1.67V13H24c.51 0 .82-.25.82-.73s-.31-.68-.82-.68m.81-8.41a.56.56 0 0 0 .27-.52.51.51 0 0 0-.28-.49 1.3 1.3 0 0 0-.62-.1h-1.61V3.3h1.59a1.2 1.2 0 0 0 .65-.12m10.43-1.33-.9 2.21h1.81zm-4.83 9.84a1.35 1.35 0 0 0-.63-.1h-1.61v1.24h1.59a1.2 1.2 0 0 0 .65-.11.59.59 0 0 0 .27-.53.53.53 0 0 0-.27-.5M3.3 4.06h1.78l-.89-2.21z" />
    <path
        d="M11.77 7.37a.92.92 0 0 0 .83-.55l.17-.39a.91.91 0 0 0 .9.92H15a.83.83 0 0 0 .49-.17.83.83 0 0 0 .49.17h4.37a.85.85 0 0 0 .45-.14.9.9 0 0 0 .45.14h1.31a.92.92 0 0 0 .91-.92V5.35h.75v1.1a.91.91 0 0 0 .9.91h1.32a1 1 0 0 0 .41-.11.9.9 0 0 0 .41.11h1.33a.89.89 0 0 0 .87-.74 3.78 3.78 0 0 0 2.37.74h1.53a.91.91 0 0 0 .84-.58l.26-.66H36l.28.67a.9.9 0 0 0 .83.57h2.66a.92.92 0 0 0 .91-.92v-.86l.8 1.34a.89.89 0 0 0 .77.45h1.85a.91.91 0 0 0 .9-.92V.91a.91.91 0 0 0-.9-.91h-1.34a.91.91 0 0 0-.91.91v.58l-.62-1a.91.91 0 0 0-.77-.49h-2a.91.91 0 0 0-.9.92v.77L37.08.56a.9.9 0 0 0-.83-.56h-2a.92.92 0 0 0-.54.18.9.9 0 0 0-.5-.18H32a3.54 3.54 0 0 0-2.46.78.9.9 0 0 0-.93-.78h-1.33a.9.9 0 0 0-.81.52l-.16-.13a3.8 3.8 0 0 0-2-.39h-3a.9.9 0 0 0-.45.14.85.85 0 0 0-.5-.14H16a.83.83 0 0 0-.49.17A.83.83 0 0 0 15 0h-2.17a.9.9 0 0 0-.83.56l-.77 1.85-.86-1.88A.91.91 0 0 0 9.55 0H7.41a.91.91 0 0 0-.9.92v.79L6 .55A.91.91 0 0 0 5.19 0H3.25a.9.9 0 0 0-.83.55L.07 6.09A.93.93 0 0 0 .15 7a.92.92 0 0 0 .75.41h1.43a.91.91 0 0 0 .83-.57l.27-.67H5l.27.67a.9.9 0 0 0 .84.56h2.61a.9.9 0 0 0 .9-.91l.17.39a.92.92 0 0 0 .83.55ZM30 1.56a2.65 2.65 0 0 1 2-.65h1.2V2.1H32a1.23 1.23 0 0 0-1 .33 1.84 1.84 0 0 0-.38 1.25A2 2 0 0 0 30.94 5a1.28 1.28 0 0 0 .92.29h.58L34.29.91h2l2.21 5.24V.91h2l2.3 3.86V.91h1.3v5.54h-1.86l-2.48-4.16v4.16H37.1l-.51-1.23h-2.72l-.49 1.23h-1.53A2.74 2.74 0 0 1 30 5.84a2.82 2.82 0 0 1-.7-2.12 3 3 0 0 1 .7-2.16M32.42 3l-.57 1.35a1 1 0 0 1-.25 0 1.3 1.3 0 0 1-.11-.65 1.2 1.2 0 0 1 .11-.6s.06-.1.4-.1ZM27.28.91h1.33v5.54h-1.33Zm-6 0h3a3.05 3.05 0 0 1 1.59.27 1.31 1.31 0 0 1 .66 1.23 1.56 1.56 0 0 1-.92 1.47 1.5 1.5 0 0 1 .64.47 1.55 1.55 0 0 1 .22 1v1.1h-1.33v-.7a1.68 1.68 0 0 0-.21-1.08c-.19-.19-.48-.23-.95-.23h-1.41v2h-1.31ZM16 .91h4.37v1.16H17.3v1h3V4.2h-3v1.11h3.06v1.14H16Zm-7.28 1.2v4.34H6.06l-.51-1.23H2.83l-.51 1.23H.9L3.24.91h2l2.17 5.25V.91h2.14l1.71 3.76L12.83.91H15v5.54h-1.33V2.11l-1.9 4.34h-1.15Zm3.91 9.48v1.01h2.87v1.13h-2.87v1.1h3.21l1.5-1.63-1.43-1.61z" />
    <rect x="12.63" y="11.59" />
</svg>