<svg viewBox="0 0 1010 250" fill="none" xmlns="http://www.w3.org/2000/svg">
    <path
        d="M735.7 121.45v58.8H717V35.05h49.5q18.9 0 32.1 12.6c8.9 8.4 13.4 18.6 13.4 30.6 0 12.3-4.5 22.6-13.4 30.8-8.7 8.3-19.3 12.4-32.1 12.4zm0-68.5v50.7h31.2c7.4 0 13.6-2.5 18.5-7.5 5-5 7.5-11 7.5-17.9 0-6.8-2.5-12.6-7.5-17.6-4.9-5.1-11-7.7-18.5-7.7zm125.1 24.7q20.7 0 32.7 11.1t12 30.3v61.3h-17.9v-13.8h-.8c-7.7 11.4-18 17-30.8 17-11 0-20.1-3.2-27.5-9.7q-11.1-9.75-11.1-24.3c0-10.3 3.9-18.5 11.7-24.5 7.8-6.1 18.2-9.1 31.1-9.1 11.1 0 20.2 2 27.4 6.1v-4.3c0-6.5-2.6-12-7.7-16.5s-11.2-6.8-18.1-6.8c-10.4 0-18.7 4.4-24.7 13.2l-16.4-10.3c9-13.2 22.4-19.7 40.1-19.7m-24.1 72.2c0 4.9 2.1 8.9 6.2 12.2 4.1 3.2 9 4.9 14.5 4.9q11.7 0 21-8.7c6.2-5.8 9.2-12.6 9.2-20.5q-8.7-6.9-24.3-6.9c-7.6 0-13.9 1.8-19 5.5-5.1 3.6-7.6 8.1-7.6 13.5m170.3-68.9-62.3 143.2h-19.3l23.1-50.1-41-93.1h20.3l29.6 71.4h.4l28.8-71.4zm-920.3 35.7v-22.5h75.2c.8 4 1.2 8.7 1.2 13.8 0 16.8-4.6 37.7-19.4 52.5-14.4 15-32.9 23.1-57.3 23.1-45.3 0-83.4-36.9-83.4-82.2s38-82.3 83.3-82.3c25.1 0 42.9 9.8 56.3 22.7l-15.8 15.8c-9.6-9-22.7-16-40.5-16-33.1 0-58.9 26.7-58.9 59.8s25.8 59.7 58.9 59.7c21.5 0 33.7-8.6 41.5-16.4 6.4-6.4 10.6-15.5 12.2-28zm190.9 13.9c0 30.5-23.9 52.9-53.1 52.9s-53.1-22.5-53.1-52.9c0-30.7 23.9-52.9 53.1-52.9 29.3 0 53.1 22.3 53.1 52.9m-23.2 0c0-19.1-13.8-32.1-29.9-32.1-16 0-29.9 13-29.9 32.1 0 18.8 13.8 32.1 29.9 32.1s29.9-13.2 29.9-32.1m139.1 0c0 30.5-23.9 52.9-53.1 52.9s-53.1-22.4-53.1-52.9c0-30.7 23.9-52.9 53.1-52.9 29.3 0 53.1 22.3 53.1 52.9m-23.2 0c0-19.1-13.8-32.1-29.9-32.1-16 0-29.9 13-29.9 32.1 0 18.8 13.8 32.1 29.9 32.1 16 0 29.9-13.2 29.9-32.1m134.3-49.7v95c0 39.1-23.1 55.1-50.3 55.1-25.7 0-41.1-17.2-46.9-31.3l20.2-8.4c3.6 8.6 12.4 18.8 26.7 18.8 17.4 0 28.3-10.8 28.3-31.1v-7.6h-.8c-5.2 6.4-15.2 12-27.9 12-26.5 0-50.7-23.1-50.7-52.7 0-29.9 24.3-53.1 50.7-53.1 12.6 0 22.7 5.6 27.9 11.8h.8v-8.6zm-20.4 49.9c0-18.6-12.4-32.3-28.3-32.3-16 0-29.5 13.6-29.5 32.3 0 18.4 13.4 31.9 29.5 31.9 15.8 0 28.3-13.4 28.3-31.9M544 25.25v155.1h-23.3V25.25zm89.8 122.8 18 12c-5.8 8.6-19.8 23.5-44.1 23.5-30.1 0-52.5-23.3-52.5-52.9 0-31.5 22.7-52.9 49.9-52.9 27.5 0 40.9 21.9 45.3 33.7l2.4 6-70.8 29.3c5.4 10.6 13.8 16 25.7 16 11.9-.1 20.1-5.9 26.1-14.7m-55.5-19.1 47.3-19.7c-2.6-6.6-10.4-11.2-19.6-11.2-11.9.1-28.3 10.5-27.7 30.9"
        fill="currentColor" />
</svg>