<?xml version="1.0" standalone="no"?>
<!DOCTYPE svg PUBLIC "-//W3C//DTD SVG 20010904//EN"
 "http://www.w3.org/TR/2001/REC-SVG-20010904/DTD/svg10.dtd">
<svg version="1.0" xmlns="http://www.w3.org/2000/svg"
 width="832.000000pt" height="832.000000pt" viewBox="0 0 832.000000 832.000000"
 preserveAspectRatio="xMidYMid meet">
<metadata>
Created by potrace 1.14, written by Peter Selinger 2001-2017
</metadata>
<g transform="translate(0.000000,832.000000) scale(0.100000,-0.100000)"
fill="#000000" stroke="none">
<path d="M7479 8248 c-31 -29 -88 -82 -129 -118 -40 -36 -87 -78 -106 -95 -18
-16 -56 -50 -85 -75 -29 -25 -57 -50 -63 -55 -6 -6 -33 -28 -61 -50 -27 -22
-52 -43 -55 -46 -3 -3 -34 -30 -70 -60 -36 -29 -70 -58 -77 -64 -14 -11 -10
-9 -113 -90 -91 -73 -83 -67 -200 -157 -52 -40 -129 -98 -170 -128 -41 -30
-76 -58 -78 -62 -2 -5 -8 -8 -14 -8 -5 0 -28 -15 -51 -34 -47 -38 -111 -82
-277 -194 -63 -42 -116 -80 -118 -84 -2 -5 -7 -8 -12 -8 -4 0 -68 -38 -141
-85 -74 -47 -141 -88 -149 -92 -8 -4 -52 -29 -98 -55 -46 -26 -87 -48 -92 -48
-5 0 -10 -3 -12 -7 -5 -12 -88 -55 -88 -46 0 4 -4 3 -8 -3 -8 -11 -95 -58
-128 -68 -19 -6 -22 -2 -29 41 -11 68 -12 68 -30 126 -9 28 -17 59 -19 67 -2
8 -7 24 -11 35 -4 11 -21 56 -38 100 -16 44 -34 86 -40 93 -16 20 -4 22 42 6
89 -31 238 -5 328 57 24 17 43 33 43 37 0 4 -21 8 -47 10 -25 1 -52 7 -60 13
-7 6 -13 9 -13 5 0 -14 -97 44 -125 76 -42 46 -52 67 -70 145 -16 68 -68 176
-105 215 -17 19 -26 37 -17 39 1 0 22 3 47 6 55 7 153 51 198 88 39 34 106
140 97 155 -4 6 -10 8 -14 6 -34 -22 -205 -27 -288 -10 -67 14 -154 51 -228
99 -22 13 -50 30 -62 37 -13 6 -23 15 -23 20 0 4 -4 8 -9 8 -5 0 -38 19 -73
42 -222 148 -396 212 -578 212 -88 1 -111 -3 -145 -21 -46 -24 -80 -58 -89
-90 -7 -20 -8 -21 -59 -7 -29 8 -77 18 -107 24 -30 6 -66 12 -80 15 -47 9
-125 17 -205 19 -152 5 -294 -36 -358 -102 -84 -87 -84 -265 -1 -409 13 -23
29 -45 35 -48 5 -4 28 14 50 38 97 110 241 123 419 36 36 -18 85 -48 110 -67
67 -53 185 -176 203 -214 l17 -33 -46 -42 c-38 -34 -147 -98 -157 -91 -1 1
-12 -4 -24 -10 -44 -24 -141 -44 -238 -49 -55 -3 -102 -7 -104 -9 -11 -10 68
-78 114 -99 77 -36 131 -46 240 -48 120 -1 238 23 340 68 59 26 57 27 70 -34
3 -12 7 -30 10 -42 2 -11 6 -28 9 -37 8 -27 15 -72 22 -139 5 -53 3 -63 -10
-63 -9 0 -44 -10 -78 -21 -437 -148 -723 -545 -783 -1084 -6 -50 -6 -271 -1
-305 3 -14 7 -47 11 -75 3 -27 8 -59 10 -70 3 -11 7 -31 9 -45 2 -14 16 -68
31 -120 l28 -94 -94 -88 c-140 -130 -140 -130 -194 -173 -27 -22 -54 -45 -60
-51 -5 -6 -48 -42 -95 -80 -47 -38 -87 -71 -90 -74 -3 -3 -12 -9 -21 -15 -9
-5 -80 -58 -157 -117 -78 -59 -150 -112 -161 -117 -11 -6 -25 -17 -33 -24 -7
-7 -55 -42 -107 -77 l-94 -64 -19 25 c-123 155 -237 273 -344 357 -47 36 -174
107 -174 96 0 -3 -6 -1 -14 5 -36 30 -197 13 -252 -26 -30 -22 -71 -82 -57
-84 4 -1 24 -2 43 -3 54 -3 180 -50 180 -68 0 -4 5 -8 11 -8 29 0 226 -184
317 -296 40 -49 52 -72 34 -60 -9 6 -59 16 -107 22 -16 2 -41 5 -55 8 -26 5
-124 15 -200 22 -83 6 -254 6 -319 -1 -78 -8 -168 -41 -218 -80 -49 -38 -89
-86 -108 -129 -20 -47 -33 -126 -20 -126 3 0 23 11 44 25 51 34 129 63 193 72
95 13 321 7 419 -12 14 -3 45 -7 70 -9 24 -3 44 -5 44 -6 0 -2 22 -6 85 -16
25 -4 52 -9 60 -11 8 -2 33 -6 55 -9 43 -7 57 -14 38 -21 -23 -8 -137 -85
-187 -127 -264 -217 -385 -439 -309 -569 24 -40 41 -45 49 -13 3 14 10 26 15
26 5 0 9 7 9 16 0 22 108 150 176 210 32 27 62 54 68 59 48 47 451 304 459
294 34 -44 113 -210 122 -259 2 -8 4 -16 5 -17 4 -5 6 -18 13 -73 12 -92 14
-134 6 -162 -10 -38 4 -36 71 8 165 107 182 296 48 557 -23 43 -39 79 -37 81
13 10 214 114 384 198 110 55 208 103 218 109 35 19 57 30 292 145 132 64 252
126 268 136 15 11 27 17 27 13 0 -3 10 1 23 9 20 13 28 10 112 -40 125 -76
255 -177 355 -276 87 -86 178 -187 194 -216 5 -10 12 -19 16 -22 8 -6 98 -140
125 -187 19 -32 18 -32 -13 -130 -17 -54 -38 -134 -46 -178 -18 -101 -18 -271
1 -344 8 -31 17 -64 18 -74 2 -9 18 -45 36 -80 98 -195 273 -334 520 -416 52
-17 108 -33 124 -36 17 -3 64 -12 105 -19 42 -8 133 -13 212 -12 l138 1 4 -25
c6 -31 15 -106 22 -185 7 -77 7 -369 0 -460 -7 -81 -12 -123 -27 -220 -6 -38
-12 -80 -14 -92 -2 -12 -6 -27 -10 -32 -3 -6 -8 -20 -10 -32 -11 -54 -40 -58
-127 -20 -180 78 -350 70 -453 -21 -36 -31 -83 -110 -91 -152 -2 -11 -7 -37
-10 -56 l-7 -34 39 31 c57 44 138 71 214 70 36 0 70 -3 75 -6 6 -3 18 -7 27
-8 26 -4 98 -44 98 -54 0 -5 -3 -8 -7 -7 -18 5 -113 -13 -118 -22 -3 -6 -13
-10 -21 -10 -27 0 -122 -80 -153 -128 -37 -60 -50 -109 -45 -172 4 -43 38
-140 50 -140 2 0 15 22 28 48 14 27 51 76 83 109 101 105 196 137 321 109 l33
-8 -25 -19 c-13 -10 -27 -19 -30 -19 -8 0 -45 -31 -65 -54 -9 -10 -20 -23 -26
-30 -53 -61 -68 -184 -31 -261 21 -44 86 -110 97 -98 3 5 14 40 23 78 20 83
65 162 110 193 27 18 89 43 170 69 54 17 154 124 196 209 l35 71 40 -4 c77 -7
160 -47 230 -108 43 -38 51 -42 59 -28 9 16 11 99 4 135 -15 68 -151 201 -220
215 -15 3 -28 11 -28 17 0 6 13 51 29 101 61 186 121 419 121 467 0 19 5 21
130 39 99 15 85 12 135 27 22 6 45 12 50 13 6 1 38 12 73 25 415 157 693 493
759 920 7 51 8 257 0 309 -43 294 -162 507 -383 684 -78 63 -203 136 -303 176
-74 30 -230 72 -296 80 -28 4 -66 10 -85 14 -41 8 -289 7 -370 -3 -73 -8 -206
-33 -305 -57 l-80 -19 -37 27 c-54 37 -148 131 -183 184 -16 24 -32 46 -35 49
-24 24 -84 186 -76 206 3 8 1 14 -3 14 -11 0 -9 150 2 167 6 9 20 8 60 -4 28
-8 61 -17 72 -18 11 -2 63 -13 115 -24 52 -12 109 -24 125 -26 17 -3 41 -7 55
-10 14 -2 41 -7 60 -10 19 -3 46 -7 60 -10 14 -3 45 -7 70 -10 25 -3 59 -7 75
-10 164 -22 188 -25 385 -41 117 -9 262 -13 430 -13 263 0 309 5 520 54 112
26 297 131 377 214 94 96 175 233 189 316 5 33 4 36 -14 30 -11 -3 -31 -8 -44
-10 -13 -3 -68 -14 -123 -25 -56 -11 -114 -22 -130 -24 -17 -3 -43 -7 -60 -9
-109 -19 -151 -24 -235 -32 -36 -3 -76 -8 -90 -10 -22 -4 -127 -11 -300 -21
-84 -5 -563 -4 -665 1 -160 7 -316 20 -396 31 -20 2 -56 6 -80 8 -44 4 -139
19 -271 42 -54 9 -81 27 -85 56 -2 19 2 30 15 37 17 9 294 22 549 25 51 0 93
3 93 6 0 3 33 5 73 6 70 1 265 12 337 19 19 2 67 6 105 9 39 4 90 9 115 11 25
3 65 7 89 10 57 6 120 14 151 21 14 2 45 6 70 9 25 3 56 7 70 10 34 7 69 14
105 21 17 2 41 7 55 9 43 8 71 14 88 19 9 3 28 7 42 10 14 3 52 12 85 21 33 9
67 18 75 20 98 21 327 124 395 178 104 82 183 176 220 262 10 22 22 49 27 60
23 53 45 161 47 229 l2 76 -43 -19 c-24 -10 -64 -28 -89 -39 -64 -29 -341
-142 -359 -147 -17 -4 -155 -53 -185 -65 -17 -7 -87 -31 -105 -35 -3 -1 -12
-5 -20 -8 -25 -10 -283 -88 -310 -93 -14 -3 -34 -8 -45 -11 -11 -4 -24 -8 -30
-9 -5 -2 -53 -14 -105 -28 -52 -14 -106 -27 -120 -30 -14 -3 -43 -10 -65 -15
-22 -5 -51 -12 -65 -15 -14 -2 -45 -9 -70 -15 -25 -5 -58 -12 -75 -15 -16 -3
-41 -8 -55 -11 -14 -3 -40 -8 -59 -11 -18 -3 -43 -8 -55 -10 -11 -3 -37 -7
-56 -10 -19 -2 -46 -7 -60 -10 -14 -3 -38 -6 -55 -8 -96 -12 -142 -18 -155
-21 -8 -2 -44 -7 -80 -11 -36 -3 -78 -8 -95 -9 -49 -6 -195 -17 -262 -20 -49
-2 -66 1 -81 16 -21 19 -20 50 2 68 10 8 193 60 236 66 8 1 22 5 30 8 8 4 42
13 75 21 85 20 491 137 535 153 8 3 20 7 26 8 98 22 716 243 884 317 25 11 61
26 80 35 67 29 245 117 250 123 3 4 13 10 23 13 50 19 231 151 303 222 71 69
174 207 174 232 0 4 6 20 14 34 7 14 17 39 21 55 4 16 9 34 11 39 19 62 25
273 10 348 l-7 38 -32 -26 c-43 -34 -95 -74 -182 -137 -5 -4 -23 -18 -40 -31
-34 -26 -352 -237 -359 -237 -2 0 -43 -24 -92 -53 -49 -29 -96 -56 -104 -60
-8 -4 -55 -30 -105 -58 -133 -74 -629 -319 -655 -323 -4 -1 -191 -80 -285
-120 -16 -8 -52 -22 -80 -31 -27 -10 -56 -23 -62 -28 -7 -5 -13 -7 -13 -4 0 4
-20 -2 -44 -13 -90 -38 -402 -139 -561 -181 -63 -17 -65 -17 -93 -5 -18 8 -22
16 -20 40 3 29 12 36 188 123 102 51 196 97 210 103 23 9 112 55 420 216 217
114 578 322 685 394 22 15 78 53 125 84 114 75 123 81 215 150 86 64 174 136
215 176 15 14 48 46 76 71 109 103 173 185 227 294 38 76 71 167 83 230 15 81
9 293 -10 324 -4 6 -9 20 -11 32 -6 28 -28 79 -35 79 -4 0 -31 -24 -61 -52z
m-3468 -297 c90 -31 179 -74 179 -86 0 -13 -33 -43 -66 -62 -12 -7 -53 -11
-95 -10 -63 2 -85 8 -151 41 -43 21 -78 40 -78 43 0 20 46 76 71 86 29 11 88
6 140 -12z m2124 -4275 c196 -41 332 -111 463 -236 84 -80 155 -210 177 -325
26 -134 26 -258 0 -365 -3 -14 -8 -36 -11 -49 -6 -30 -65 -149 -98 -198 -58
-85 -176 -187 -271 -233 -16 -8 -33 -19 -37 -25 -4 -5 -8 -7 -8 -3 0 4 -26 -4
-57 -17 -49 -20 -188 -55 -222 -55 -5 0 -8 19 -6 43 22 266 25 634 7 689 -17
49 -33 54 -210 63 -48 3 -103 7 -122 10 -50 7 -85 13 -85 15 0 1 -7 3 -15 5
-79 15 -215 103 -256 165 -27 41 -53 130 -48 165 13 92 33 139 81 192 41 46
139 107 187 118 6 1 18 4 26 7 27 10 134 31 174 35 22 2 42 5 44 7 5 6 254 -1
287 -8z"/>
<path d="M2313 7583 c-4 -15 -7 -59 -6 -98 2 -171 136 -312 305 -320 76 -4
166 21 276 74 45 23 87 41 91 41 5 0 11 4 13 8 2 7 93 54 108 57 3 0 15 6 26
13 12 6 24 8 28 5 3 -3 6 -2 6 4 0 6 27 16 60 23 76 16 97 17 138 9 43 -9 43
12 0 51 -45 41 -72 48 -174 45 -93 -3 -114 -7 -173 -27 -20 -7 -38 -13 -41
-13 -3 -1 -17 -7 -32 -13 -92 -38 -240 -56 -333 -39 -48 9 -150 58 -187 91
-14 13 -42 45 -62 70 l-35 47 -8 -28z"/>
<path d="M1561 7128 c-26 -9 -26 -9 -1 -51 36 -62 53 -136 52 -242 -1 -137 -6
-177 -42 -330 -32 -137 -30 -135 -75 -47 -117 227 -268 461 -350 544 -80 81
-204 133 -290 123 -16 -1 -37 -3 -46 -4 -19 -1 -113 -60 -106 -67 3 -3 11 -7
19 -8 89 -15 270 -173 338 -294 8 -15 18 -29 21 -32 21 -16 249 -470 237 -470
-2 0 -26 9 -54 19 -68 26 -226 67 -294 77 -209 29 -358 21 -441 -22 -45 -23
-87 -66 -104 -108 -20 -48 -20 -48 20 -40 97 18 245 6 385 -31 36 -9 72 -18
80 -20 15 -3 201 -69 230 -82 8 -3 17 -7 20 -8 24 -8 204 -86 208 -90 6 -6
-56 -123 -99 -187 -57 -83 -123 -152 -196 -205 -35 -25 -63 -46 -63 -49 0 -5
62 -37 80 -41 64 -14 114 -14 165 2 30 10 55 22 55 26 0 5 5 9 11 9 20 0 99
72 147 134 56 72 64 85 99 154 15 28 31 52 35 52 5 0 102 -47 216 -104 197
-99 423 -209 597 -291 44 -20 116 -54 160 -75 44 -21 107 -50 140 -65 33 -15
80 -37 105 -48 25 -12 52 -24 61 -28 17 -8 16 -1 -6 101 -18 85 -25 316 -13
452 3 36 2 70 -1 75 -5 8 -67 25 -236 67 -50 13 -147 40 -305 87 -58 17 -130
38 -160 47 -30 9 -138 44 -240 77 -154 51 -185 65 -186 81 0 10 2 24 5 29 3 6
6 15 8 20 1 6 11 44 22 85 11 41 22 86 25 100 3 14 7 36 11 50 6 27 15 88 20
135 7 53 6 219 0 245 -3 14 -9 38 -11 54 -5 27 -26 70 -61 122 -35 54 -138 92
-192 72z"/>
<path d="M3599 3996 c-220 -96 -403 -245 -530 -431 -49 -71 -118 -209 -134
-265 0 -3 -4 -14 -7 -25 -4 -11 -9 -36 -12 -55 -3 -19 -8 -46 -11 -60 -18 -77
-4 -331 19 -368 3 -5 8 -23 11 -40 8 -46 70 -188 120 -274 25 -43 45 -81 45
-86 0 -10 -74 -80 -145 -138 -138 -114 -498 -319 -576 -329 -34 -4 -39 7 -44
97 -4 77 -14 137 -26 161 -5 9 -8 17 -5 17 2 0 -8 26 -24 58 -85 174 -238 244
-402 182 -65 -24 -72 -35 -29 -45 67 -15 153 -87 194 -163 24 -44 46 -161 36
-187 -4 -11 -8 -14 -8 -7 -1 20 -94 107 -137 127 -93 44 -174 50 -264 21 -14
-5 -27 -12 -30 -15 -3 -4 -17 -14 -32 -23 -28 -18 -93 -107 -84 -115 3 -3 40
-7 83 -8 102 -4 146 -12 207 -39 71 -32 115 -72 142 -131 38 -80 34 -89 -26
-59 -28 14 -63 28 -78 31 -32 7 -109 7 -137 1 -95 -20 -173 -111 -179 -210 -3
-41 8 -47 45 -27 37 19 112 33 180 32 64 -1 129 -26 180 -70 75 -66 111 -78
252 -79 146 -2 144 -1 172 -92 17 -52 17 -138 0 -219 -4 -23 -2 -33 6 -33 18
0 101 50 122 74 22 25 56 97 65 134 9 42 5 158 -6 179 -12 21 -9 23 113 68
115 43 238 92 296 118 30 14 79 35 109 48 30 12 62 28 71 36 8 7 21 13 27 13
12 0 51 19 62 30 3 3 25 15 50 27 55 27 123 66 130 74 3 3 20 14 39 24 19 9
39 21 45 26 6 5 52 38 101 73 50 35 108 79 129 97 21 19 54 48 73 64 25 22 35
40 37 65 3 32 -10 78 -25 90 -12 10 -70 144 -75 175 -18 94 -21 127 -18 186 2
37 8 87 14 110 33 122 120 232 222 282 l56 27 1 68 c4 151 24 268 63 366 10
27 15 52 11 55 -4 3 -28 33 -53 66 -82 110 -313 326 -347 325 -4 0 -42 -15
-84 -34z"/>
<path d="M5047 2114 c-1 -1 -38 -4 -82 -8 -44 -3 -91 -8 -105 -11 -14 -2 -52
-9 -85 -14 -87 -15 -115 -21 -160 -33 -22 -6 -47 -13 -55 -14 -38 -8 -150 -47
-235 -83 -408 -174 -718 -509 -762 -822 -9 -64 -9 -258 0 -314 7 -45 31 -138
45 -175 5 -14 10 -28 11 -32 3 -14 64 -123 94 -168 26 -38 166 -183 208 -215
16 -12 93 -63 124 -82 70 -42 264 -117 326 -126 19 -3 34 -6 34 -7 0 -1 24 -3
53 -6 28 -2 52 -3 52 -1 0 2 -21 27 -47 54 -66 70 -68 73 -101 139 -28 56 -62
170 -62 208 0 35 -50 167 -81 214 -66 98 -168 155 -282 156 l-58 1 -11 40
c-28 99 -12 263 35 365 27 59 100 159 152 210 87 84 94 90 104 90 5 0 11 4 13
8 2 5 32 26 68 48 36 21 67 42 68 47 2 4 8 7 13 7 5 0 47 18 94 40 47 22 91
40 99 40 7 0 16 3 20 8 4 4 11 7 14 8 4 0 16 4 27 8 34 13 69 24 100 32 17 4
37 9 45 11 8 3 24 6 35 8 11 2 20 4 20 5 0 3 76 18 135 26 25 3 54 8 65 10 11
2 72 7 135 10 63 3 116 6 117 8 5 5 16 170 13 201 -3 44 -7 88 -9 102 -1 9
-26 12 -91 11 -50 -1 -92 -3 -93 -4z"/>
</g>
</svg>
