<svg xmlns="http://www.w3.org/2000/svg">
    <path
        d="M161.287 3H59.713C27.97 3 2 28.97 2 60.713c0 31.742 25.97 57.713 57.713 57.713h101.574c31.742 0 57.713-25.971 57.713-57.713S193.03 3 161.287 3"
        fill="#FFF" />
    <path
        d="M161.287 7.675a52.4 52.4 0 0 1 20.575 4.184c6.32 2.684 11.975 6.521 16.88 11.398a53.2 53.2 0 0 1 11.4 16.881c2.77 6.522 4.183 13.447 4.183 20.575s-1.414 14.053-4.184 20.574c-2.684 6.32-6.521 11.976-11.398 16.881a53.2 53.2 0 0 1-16.881 11.399 52.4 52.4 0 0 1-20.575 4.184H59.713a52.4 52.4 0 0 1-20.575-4.184c-6.32-2.684-11.975-6.522-16.88-11.399a53.2 53.2 0 0 1-11.4-16.88c-2.77-6.522-4.183-13.448-4.183-20.575s1.414-14.053 4.184-20.575c2.684-6.32 6.521-11.975 11.398-16.88a53.2 53.2 0 0 1 16.881-11.4 52.4 52.4 0 0 1 20.575-4.183zm0-4.675H59.713C27.97 3 2 28.97 2 60.713c0 31.742 25.97 57.713 57.713 57.713h101.574c31.742 0 57.713-25.971 57.713-57.713S193.03 3 161.287 3"
        fill="#3C4043" />
    <path
        d="M105.479 64.81v17.458h-5.54V39.157h14.687c3.723 0 6.897 1.24 9.494 3.723q3.982 3.722 3.982 9.09c0 3.664-1.327 6.694-3.982 9.147-2.568 2.453-5.742 3.665-9.494 3.665h-9.147zm0-20.343V59.5h9.263c2.193 0 4.04-.75 5.483-2.222 1.471-1.472 2.222-3.26 2.222-5.28 0-1.992-.75-3.752-2.222-5.224-1.443-1.53-3.261-2.28-5.483-2.28h-9.263zm37.109 7.329q6.147 0 9.696 3.29 3.55 3.29 3.55 9.003v18.18h-5.281V78.17h-.231c-2.28 3.376-5.339 5.05-9.148 5.05-3.26 0-5.973-.953-8.166-2.886s-3.29-4.328-3.29-7.214q0-4.589 3.463-7.272c2.309-1.818 5.396-2.712 9.234-2.712 3.29 0 6.002.606 8.109 1.818v-1.27c0-1.933-.75-3.55-2.28-4.906s-3.318-2.02-5.367-2.02c-3.088 0-5.54 1.299-7.33 3.925l-4.876-3.059c2.683-3.896 6.665-5.829 11.917-5.829zm-7.156 21.412c0 1.442.606 2.654 1.847 3.607 1.212.952 2.655 1.442 4.3 1.442q3.505 0 6.232-2.597c2.727-2.597 2.742-3.75 2.742-6.088-1.732-1.357-4.127-2.05-7.214-2.05-2.251 0-4.127.55-5.627 1.617-1.53 1.125-2.28 2.481-2.28 4.069m50.528-20.46-18.47 42.477h-5.713l6.868-14.861-12.178-27.616h6.031l8.773 21.181h.115l8.541-21.18h6.031z"
        fill="#3C4043" />
    <path
        d="M83.441 61.29c0-1.807-.161-3.535-.461-5.197H59.756v9.522l13.375.003c-.543 3.169-2.288 5.87-4.963 7.67v6.179h7.961c4.649-4.303 7.312-10.663 7.312-18.177"
        fill="#4285F4" />
    <path
        d="M68.17 73.288c-2.216 1.495-5.07 2.37-8.408 2.37-6.45 0-11.92-4.346-13.88-10.204h-8.213v6.371C41.74 79.9 50.101 85.44 59.762 85.44c6.677 0 12.287-2.196 16.37-5.976l-7.961-6.176z"
        fill="#34A853" />
    <path
        d="M45.109 60.727c0-1.645.274-3.235.773-4.73v-6.37h-8.213c-1.682 3.338-2.628 7.106-2.628 11.1s.949 7.763 2.628 11.101l8.213-6.371a14.9 14.9 0 0 1-.773-4.73"
        fill="#FABB05" />
    <path
        d="M59.762 45.794c3.644 0 6.908 1.255 9.485 3.708l7.055-7.05c-4.285-3.99-9.871-6.44-16.54-6.44-9.658 0-18.024 5.54-22.093 13.614l8.213 6.372c1.96-5.858 7.43-10.204 13.88-10.204"
        fill="#E94235" />
</svg>