<svg viewBox="0 0 45 25" xmlns="http://www.w3.org/2000/svg">
    <rect width="45" height="25" rx="4.321" fill="#FFB3C7" />
    <path
        d="M40.794 14.646a1.07 1.07 0 0 0-1.066 1.076 1.07 1.07 0 0 0 1.066 1.076c.589 0 1.066-.482 1.066-1.076a1.07 1.07 0 0 0-1.066-1.076m-3.507-.831c0-.814-.69-1.473-1.54-1.473s-1.538.66-1.538 1.473.689 1.472 1.539 1.472 1.539-.659 1.539-1.472m.005-2.863h1.699v5.725h-1.699v-.367a2.96 2.96 0 0 1-1.683.524c-1.653 0-2.994-1.352-2.994-3.02s1.34-3.02 2.994-3.02a2.95 2.95 0 0 1 1.683.524zm-13.592.746v-.745h-1.738v5.724h1.742v-2.673c0-.902.969-1.386 1.64-1.386h.021v-1.664c-.69 0-1.324.298-1.665.745zm-4.331 2.117c0-.814-.69-1.473-1.54-1.473s-1.538.66-1.538 1.473.689 1.472 1.539 1.472 1.539-.659 1.539-1.472m.005-2.863h1.699v5.725h-1.699v-.367a2.96 2.96 0 0 1-1.683.524c-1.653 0-2.994-1.352-2.994-3.02s1.34-3.02 2.994-3.02a2.95 2.95 0 0 1 1.683.524zm10.223-.154c-.678 0-1.32.213-1.75.8v-.645h-1.69v5.724h1.711v-3.008c0-.87.579-1.297 1.275-1.297.747 0 1.176.45 1.176 1.285v3.02h1.695v-3.64c0-1.333-1.05-2.238-2.418-2.238m-17.372 5.879h1.778V8.402h-1.778zm-7.81.001h1.883V8.4H4.414zM10.998 8.4c0 1.792-.692 3.46-1.925 4.699l2.602 3.58H9.35L6.522 12.79l.73-.552A4.77 4.77 0 0 0 9.156 8.4z"
        fill="#0A0B09" />
</svg>