<svg viewBox="0 0 34 26" xmlns="http://www.w3.org/2000/svg"
    xmlns:xlink="http://www.w3.org/1999/xlink">
    <defs>
        <path id="a" d="M.065.102h.568v.551H.065z" />
        <path id="c" d="M0 .06h16.504v20.372H0z" />
        <path id="e" d="M.042.06h16.505v20.372H.042z" />
    </defs>
    <g fill="none" fill-rule="evenodd">
        <path
            d="M5.662 23.181a1 1 0 0 0-.337-.221 1.1 1.1 0 0 0-.428-.08q-.122 0-.255.022-.132.021-.26.075a1 1 0 0 0-.24.148.9.9 0 0 0-.2.238 1 1 0 0 0-.37-.354 1.1 1.1 0 0 0-.534-.129q-.1 0-.209.019a1 1 0 0 0-.214.063.87.87 0 0 0-.38.32v-.331h-.568v2.703h.574v-1.498q0-.172.054-.306a.6.6 0 0 1 .36-.361.7.7 0 0 1 .263-.047q.29 0 .45.183.159.184.159.525v1.504H4.1v-1.498q0-.172.055-.306a.6.6 0 0 1 .36-.361.7.7 0 0 1 .262-.047q.29 0 .45.183.16.184.16.525v1.504h.573v-1.699q0-.236-.078-.434a1 1 0 0 0-.22-.34m3.001 1.466a.77.77 0 0 1-.756.522.8.8 0 0 1-.343-.07.8.8 0 0 1-.255-.186.8.8 0 0 1-.16-.275 1 1 0 0 1-.057-.336q0-.177.056-.335a.8.8 0 0 1 .161-.275.8.8 0 0 1 .255-.186q.151-.07.343-.07.184 0 .333.067a.77.77 0 0 1 .423.455q.06.158.06.344a1 1 0 0 1-.06.345m.023-1.369a1.1 1.1 0 0 0-.35-.289 1.1 1.1 0 0 0-.5-.109 1.325 1.325 0 0 0-1.246.851q-.105.261-.105.571t.105.572.287.45a1.32 1.32 0 0 0 .96.4q.29 0 .5-.107.207-.107.349-.287v.324h.59v-2.703h-.59zm3.3 1.02q-.248-.194-.691-.258l-.28-.042q-.093-.014-.174-.033a.6.6 0 0 1-.141-.05.3.3 0 0 1-.095-.078.2.2 0 0 1-.035-.118q0-.144.134-.233a.7.7 0 0 1 .376-.09q.127 0 .25.023a2 2 0 0 1 .433.132q.09.04.153.077l.253-.46a1.7 1.7 0 0 0-.493-.21 2.3 2.3 0 0 0-.601-.075q-.26 0-.466.061-.206.06-.351.172a.75.75 0 0 0-.223.272.8.8 0 0 0-.077.362q0 .327.232.529.233.201.685.263l.282.037a.9.9 0 0 1 .355.109q.113.075.113.19 0 .153-.155.241-.156.09-.46.09-.166 0-.298-.023a1.5 1.5 0 0 1-.24-.061 1.2 1.2 0 0 1-.354-.193l-.273.442q.146.11.307.178a2.1 2.1 0 0 0 .852.17q.292 0 .52-.065.231-.066.387-.182a.77.77 0 0 0 .323-.636.65.65 0 0 0-.248-.54m3.872-.228q.022-.147.079-.27a.7.7 0 0 1 .145-.21q.09-.09.212-.138a.8.8 0 0 1 .28-.048q.283 0 .46.175t.226.491zm1.65-.797a1.2 1.2 0 0 0-.404-.29 1.3 1.3 0 0 0-.518-.103q-.3 0-.546.103a1.2 1.2 0 0 0-.425.29q-.177.188-.276.45a1.6 1.6 0 0 0-.099.579q0 .321.102.583.1.262.285.45.183.186.437.287.255.102.559.101.307 0 .585-.084a1.5 1.5 0 0 0 .526-.297l-.293-.42q-.17.135-.374.21a1.2 1.2 0 0 1-.408.075 1 1 0 0 1-.276-.04.72.72 0 0 1-.423-.335.9.9 0 0 1-.105-.313h1.998a2 2 0 0 0 .011-.22q0-.315-.095-.577a1.4 1.4 0 0 0-.262-.449m7.812 1.373a.77.77 0 0 1-.756.522.8.8 0 0 1-.343-.07.8.8 0 0 1-.256-.186.8.8 0 0 1-.16-.275 1 1 0 0 1-.057-.336q0-.177.056-.335a.76.76 0 0 1 .416-.461q.151-.07.343-.07.185 0 .333.067a.78.78 0 0 1 .424.455q.06.158.059.344 0 .187-.06.345m.022-1.369a1.1 1.1 0 0 0-.35-.289 1.1 1.1 0 0 0-.499-.109 1.325 1.325 0 0 0-1.247.851q-.105.261-.105.571t.105.572.288.45a1.32 1.32 0 0 0 .959.4q.29 0 .5-.107.207-.107.35-.287v.324h.589v-2.703h-.59zm-10.825 1.837a.8.8 0 0 1-.281.054.5.5 0 0 1-.168-.029.35.35 0 0 1-.136-.088.4.4 0 0 1-.091-.157.7.7 0 0 1-.034-.231v-1.177h.947v-.536h-.947v-.818h-.593v.818h-.538v.536h.538v1.188q0 .54.256.794.255.255.715.255.257 0 .461-.079a2 2 0 0 0 .252-.118l-.201-.494a2 2 0 0 1-.18.082m5.323-2.235q-.248 0-.449.09c-.133.061-.245.206-.335.336v-.355h-.536v2.703h.541v-1.487q0-.172.048-.308a.7.7 0 0 1 .133-.228.55.55 0 0 1 .203-.141.7.7 0 0 1 .26-.048 1.2 1.2 0 0 1 .35.057l.174-.564a1 1 0 0 0-.145-.036 1.5 1.5 0 0 0-.244-.018m8.197-.001q-.249 0-.449.09c-.133.061-.245.206-.335.336v-.355h-.536v2.703h.541v-1.487q0-.172.048-.308a.7.7 0 0 1 .133-.228.55.55 0 0 1 .203-.141.7.7 0 0 1 .26-.048 1.2 1.2 0 0 1 .35.057l.174-.564a1 1 0 0 0-.145-.036 1.5 1.5 0 0 0-.244-.018m2.732 1.766a.77.77 0 0 1-.756.522.8.8 0 0 1-.343-.07.76.76 0 0 1-.416-.46 1 1 0 0 1-.057-.337q0-.177.057-.335a.76.76 0 0 1 .416-.461q.15-.07.343-.07.183 0 .332.067a.78.78 0 0 1 .424.455q.06.158.059.344 0 .187-.06.345m.022-2.795v1.426a1.1 1.1 0 0 0-.35-.289 1.1 1.1 0 0 0-.499-.109 1.325 1.325 0 0 0-1.247.851q-.105.261-.104.571 0 .31.104.572t.288.45a1.32 1.32 0 0 0 .959.4q.29 0 .5-.107.207-.107.35-.287v.324h.589v-3.802zm-9.538 1.826a.8.8 0 0 1 .267-.178.9.9 0 0 1 .336-.064q.198 0 .37.064.165.061.286.17l.284-.472a1.5 1.5 0 0 0-.36-.209 1.5 1.5 0 0 0-.58-.109q-.313 0-.58.11a1.38 1.38 0 0 0-.763.749 1.4 1.4 0 0 0-.11.563q0 .306.11.565a1.38 1.38 0 0 0 .763.749q.267.108.58.108t.58-.108q.2-.082.36-.21l-.284-.471a.9.9 0 0 1-.287.17 1 1 0 0 1-.369.064.9.9 0 0 1-.336-.064.8.8 0 0 1-.445-.451.9.9 0 0 1-.065-.352q0-.19.065-.35a.8.8 0 0 1 .177-.274"
            fill="#1D1D1B" />
        <mask id="b" fill="#fff">
            <use xlink:href="#a" />
        </mask>
        <path
            d="M.502.488v.08h.09A.1.1 0 0 0 .637.56Q.65.55.65.529T.636.497a.1.1 0 0 0-.043-.01zM.595.38q.089 0 .134.04t.046.11q0 .053-.033.088a.17.17 0 0 1-.095.046l.134.16H.636L.516.667H.502v.154H.38V.38zM.567.963q.072 0 .136-.029A.35.35 0 0 0 .888.742.4.4 0 0 0 .915.601.37.37 0 0 0 .814.346.35.35 0 0 0 .567.24.36.36 0 0 0 .24.46.4.4 0 0 0 .214.6a.37.37 0 0 0 .102.256.36.36 0 0 0 .25.106m0-.861a.5.5 0 0 1 .352.146.5.5 0 0 1-.55.814.5.5 0 0 1-.16-.814.5.5 0 0 1 .358-.146"
            fill="#1D1D1B" mask="url(#b)" />
        <mask id="d" fill="#fff">
            <use xlink:href="#c" />
        </mask>
        <path
            d="M12.637 10.246c0-3.238 1.512-6.121 3.867-7.987a10.14 10.14 0 0 0-6.318-2.2C4.561.06 0 4.62 0 10.247s4.56 10.186 10.186 10.186a10.14 10.14 0 0 0 6.318-2.2 10.16 10.16 0 0 1-3.867-7.986"
            fill="#E30E17" mask="url(#d)" />
        <path
            d="M12.637 10.317c0 3.238 1.512 6.121 3.867 7.987a10.16 10.16 0 0 0 3.868-7.987c0-3.238-1.512-6.121-3.868-7.987a10.16 10.16 0 0 0-3.867 7.987"
            fill="#EA600A" />
        <path
            d="M33.093 16.447v-.694l-.1.598h-.112l-.101-.597v.693h-.105v-1h.15l.112.64.11-.64h.15v1zm-.753 0v-.785h-.142v-.215h.39v.215h-.143v.785z"
            fill="#F59F00" />
        <g transform="translate(16.462 .07)">
            <mask id="f" fill="#fff">
                <use xlink:href="#e" />
            </mask>
            <path
                d="M6.36.06a10.14 10.14 0 0 0-6.318 2.2 10.16 10.16 0 0 1 3.868 7.986c0 3.238-1.512 6.12-3.868 7.987a10.14 10.14 0 0 0 6.319 2.2c5.625 0 10.186-4.561 10.186-10.187S11.987.06 6.36.06"
                fill="#F59F00" mask="url(#f)" />
        </g>
    </g>
</svg>