<svg viewBox="0 0 90 22" xmlns="http://www.w3.org/2000/svg">
    <path
        d="M34.202 9.594c-.265 1.793-1.63 1.793-2.954 1.793h-.754l.53-3.34a.414.414 0 0 1 .407-.347h.347c.896 0 1.752 0 2.18.51.264.305.346.753.244 1.384m-.57-4.664h-4.97a.7.7 0 0 0-.693.59l-2.017 12.752a.413.413 0 0 0 .407.469h2.384a.7.7 0 0 0 .692-.591l.55-3.443a.695.695 0 0 1 .672-.59h1.569c3.28 0 5.174-1.59 5.663-4.726.224-1.365 0-2.445-.632-3.219-.692-.794-1.955-1.242-3.626-1.242m11.55 9.248c-.224 1.365-1.303 2.281-2.688 2.281-.693 0-1.243-.224-1.61-.652-.346-.407-.489-1.018-.366-1.67.224-1.344 1.303-2.302 2.668-2.302.672 0 1.222.224 1.59.652.366.428.508 1.019.406 1.69m3.32-4.645H46.12c-.204 0-.388.143-.408.347l-.102.672-.163-.245c-.509-.753-1.67-.998-2.81-.998-2.629 0-4.89 1.997-5.317 4.787-.225 1.385.101 2.73.896 3.667.733.856 1.772 1.202 2.994 1.202 2.119 0 3.3-1.365 3.3-1.365l-.102.652a.43.43 0 0 0 .408.489h2.139a.7.7 0 0 0 .692-.591l1.284-8.148a.43.43 0 0 0-.428-.469m12.69.001h-2.384a.7.7 0 0 0-.57.306l-3.3 4.868-1.406-4.664a.7.7 0 0 0-.672-.49H50.52a.41.41 0 0 0-.388.55l2.628 7.741-2.485 3.504c-.204.285 0 .652.346.652h2.384a.66.66 0 0 0 .57-.306l7.965-11.488c.183-.286-.02-.673-.346-.673"
        fill="#253B80" />
    <path
        d="M69.687 9.594c-.265 1.793-1.63 1.793-2.954 1.793h-.753l.53-3.34a.414.414 0 0 1 .407-.347h.346c.896 0 1.752 0 2.18.51.264.305.346.753.244 1.384m-.57-4.664h-4.97a.665.665 0 0 0-.673.59l-2.017 12.752a.413.413 0 0 0 .408.469h2.546c.245 0 .448-.163.469-.408l.57-3.605a.695.695 0 0 1 .672-.591h1.569c3.28 0 5.174-1.589 5.663-4.726.224-1.365 0-2.444-.632-3.218-.692-.815-1.935-1.263-3.605-1.263m11.55 9.248c-.224 1.365-1.304 2.281-2.69 2.281-.692 0-1.242-.224-1.608-.652-.347-.407-.49-1.018-.367-1.67.224-1.344 1.304-2.302 2.668-2.302.673 0 1.223.224 1.59.652.366.428.509 1.019.407 1.69m3.32-4.645h-2.383c-.204 0-.387.143-.408.347l-.102.672-.163-.245c-.509-.753-1.67-.998-2.81-.998-2.628 0-4.89 1.997-5.317 4.787-.224 1.385.102 2.73.896 3.667.733.856 1.772 1.202 2.994 1.202 2.119 0 3.3-1.365 3.3-1.365l-.101.652a.43.43 0 0 0 .407.489h2.139a.665.665 0 0 0 .672-.591l1.283-8.148a.413.413 0 0 0-.407-.469m2.791-4.256L84.74 18.272a.413.413 0 0 0 .407.469h2.058a.7.7 0 0 0 .692-.591l2.017-12.752a.43.43 0 0 0-.408-.489h-2.301a.5.5 0 0 0-.428.367"
        fill="#179BD7" />
    <path
        d="m5.317 21.226.387-2.424-.856-.02H.794L3.606.956c0-.06.04-.101.081-.142a.22.22 0 0 1 .143-.06h6.824c2.26 0 3.83.468 4.644 1.405.387.428.632.897.754 1.385.122.53.122 1.162 0 1.915v.551l.387.223c.326.163.57.367.774.591.326.367.53.856.631 1.406.102.57.062 1.263-.081 2.037-.183.896-.448 1.67-.835 2.322a4.5 4.5 0 0 1-1.324 1.446c-.51.367-1.1.632-1.793.815a9.3 9.3 0 0 1-2.24.265h-.53a1.6 1.6 0 0 0-1.04.387 1.64 1.64 0 0 0-.55.957l-.04.224-.672 4.258-.02.163c0 .04-.02.081-.041.081-.02.02-.041.02-.061.02h-3.3z"
        fill="#253B80" />
    <path
        d="M16.785 5.602c-.02.122-.04.265-.06.407-.897 4.624-3.973 6.213-7.905 6.213H6.824a.965.965 0 0 0-.957.815l-1.019 6.498-.285 1.834c-.04.305.183.59.51.59h3.544a.836.836 0 0 0 .835-.713l.04-.183.673-4.237.04-.224a.85.85 0 0 1 .836-.713h.53c3.442 0 6.13-1.406 6.925-5.439.326-1.69.163-3.096-.713-4.094a3.7 3.7 0 0 0-.998-.754"
        fill="#179BD7" />
    <path
        d="M15.848 5.235a3 3 0 0 0-.428-.102c-.142-.04-.305-.06-.448-.081A12 12 0 0 0 13.2 4.93H7.863a.75.75 0 0 0-.367.081.84.84 0 0 0-.468.632l-1.141 7.19-.04.204a.98.98 0 0 1 .957-.815H8.8c3.931 0 7.007-1.589 7.904-6.213l.06-.407a4 4 0 0 0-.733-.306 1 1 0 0 0-.183-.06"
        fill="#222D65" />
    <path
        d="M7.028 5.622a.84.84 0 0 1 .835-.713H13.2q.947 0 1.772.122c.163.02.306.062.448.082.143.04.286.061.428.102.061.02.143.04.204.06q.398.123.733.306c.265-1.71 0-2.872-.916-3.91C14.85.508 13.017.02 10.674.02H3.85a.95.95 0 0 0-.957.814L.06 18.843a.585.585 0 0 0 .57.672h4.217l1.06-6.702z"
        fill="#253B80" />
</svg>