<svg version="1.1" id="Ebene_1" xmlns="http://www.w3.org/2000/svg" x="0" y="0" viewBox="0 0 90.2 60"
    xml:space="preserve">
    <style>
      .st1{fill:#fff}
    </style>
    <path d="M85.16 60H5c-2.75 0-5-2.25-5-5V5c0-2.75 2.25-5 5-5h80.16c2.75 0 5 2.25 5 5v50c0 2.75-2.25 5-5 5" style="fill:#eb6f93"/>
    <path class="st1" d="M24.99 50.94c.22.2.42.4.64.59.46.39 1 .56 1.6.5.92-.09 1.41-.85 1.15-1.69-.12-.38-.45-.57-.8-.69-.51-.18-1.03-.33-1.53-.52-.66-.25-1.26-.61-1.7-1.18-.29-.37-.45-.79-.5-1.26-.08-.84.1-1.61.61-2.29s1.2-1.08 2.04-1.21c.86-.14 1.69-.05 2.47.37.54.29.94.71 1.21 1.26.04.08.03.13-.05.18-.51.32-1.02.64-1.52.96-.13.08-.18-.02-.22-.1-.21-.33-.5-.57-.88-.66-.47-.11-.92-.07-1.27.33-.34.39-.38 1.24.27 1.49.52.2 1.04.39 1.57.58.64.23 1.24.53 1.74.98.48.43.73.99.8 1.62.07.58.01 1.16-.2 1.71-.33.82-.9 1.41-1.7 1.79-.87.41-1.77.46-2.69.26-.98-.22-1.79-.72-2.4-1.52-.03-.03-.03-.13 0-.15.44-.45.88-.89 1.33-1.34 0-.01.02-.01.03-.01m27.64-.74c-.07 1.57-.78 2.73-2.14 3.42-1.5.75-2.97.6-4.3-.42-1.02-.78-1.51-1.85-1.48-3.14.03-.92.37-1.72 1-2.41.65-.72 1.46-1.14 2.41-1.27.99-.13 1.91.07 2.75.63.92.61 1.48 1.45 1.69 2.53.04.22.05.46.07.66m-5.83.01c0 1.07.79 1.89 1.83 1.89 1.08 0 1.89-.81 1.89-1.89.01-1.05-.81-1.88-1.84-1.89-1.05-.02-1.91.83-1.88 1.89m-7.6.19c-.05 1.06-.49 1.94-1.27 2.65-.6.54-1.3.88-2.11.99-.99.13-1.91-.06-2.75-.61-.89-.59-1.48-1.4-1.69-2.45-.25-1.27.07-2.39.95-3.35a3.84 3.84 0 0 1 1.86-1.14q1.38-.375 2.7.21c.88.39 1.53 1.03 1.95 1.88.29.56.4 1.18.36 1.82m-3.95 1.7c1.07 0 1.86-.81 1.87-1.89.01-1.04-.82-1.91-1.89-1.9-1.01.01-1.81.83-1.84 1.85-.03 1.12.87 1.97 1.86 1.94m8.99-8.85v1.15c0 .22-.01.45 0 .67.01.15-.05.19-.19.19-.32 0-.63.05-.93.2-.53.26-.79.71-.84 1.28-.03.32-.01.64-.01.93.29-.15.57-.34.88-.45.28-.1.59-.11.89-.16.09-.02.14.03.14.12v1.75c0 .11-.05.13-.15.14-.54.04-1.02.22-1.38.65-.23.27-.37.58-.38.93-.01.99-.01 1.99-.01 2.98 0 .24 0 .24-.23.24h-1.7c-.14 0-.17-.04-.17-.18 0-2.26 0-4.52.01-6.77 0-.79.18-1.55.65-2.21.54-.77 1.3-1.21 2.21-1.36.4-.06.79-.06 1.21-.1m18.59 10.61c-.65.04-1.27-.02-1.86-.24-.84-.32-1.46-.88-1.84-1.71-.27-.58-.35-1.19-.35-1.81-.01-1.89 0-3.78 0-5.68 0-.24 0-.24.24-.24h1.65c.21 0 .21 0 .21.22 0 .34.01.67.01 1.01 0 .88.73 1.52 1.52 1.64.05.01.1.02.15.02.24.04.24.04.24.29v1.51c0 .21-.02.22-.22.21-.5-.04-.97-.14-1.38-.43-.1-.07-.19-.14-.3-.23-.01.06-.01.1-.01.15 0 .58-.01 1.17.01 1.75.03.86.55 1.37 1.34 1.53.16.03.32.03.48.04.08.01.14.03.14.13v1.68c-.03.05-.03.1-.03.16m-7.1 0h-2.07v-7.31h2.02v.74c.09-.11.15-.17.21-.24.46-.5 1.05-.63 1.69-.64.04 0 .1.07.1.11.01.67 0 1.34.01 2.01 0 .12-.06.12-.15.13-.34.02-.68.08-.98.26-.5.29-.77.73-.78 1.28-.04 1.15-.03 2.3-.04 3.44-.01.07-.01.14-.01.22" id="bkU9lM.tif"/>
    <path class="st1" d="M44.98 38.49c-.44-.11-.87-.22-1.31-.32-4.15-.94-6.94-3.96-7.44-8.15-.08-.65-.35-1.08-.77-1.53-.53-.57-1.09-1.18-1.42-1.88-.84-1.78 0-3.51 1.87-4.11.13-.04.25-.09.42-.16-.5-1.47-.7-2.91.63-4.01 1.25-1.04 2.56-.81 3.92.2-.31-2.61-.61-5.05-.9-7.49-.1-.82-.22-1.63-.3-2.45-.18-1.8.85-3.29 2.44-3.54 1.58-.25 2.99.76 3.41 2.5.57 2.37 1.11 4.75 1.67 7.12.08.34.17.69.44 1.03.09-.28.19-.56.27-.84.74-2.53 1.46-5.07 2.22-7.59.5-1.66 2.11-2.61 3.7-2.25 1.6.37 2.54 1.89 2.23 3.66-.14.78-.3 1.56-.46 2.34-.73 3.64-1.45 7.28-2.17 10.93-.04.19-.05.38-.07.6.2.06.35.12.51.16 1.93.51 2.72 1.39 2.84 3.39.16 2.72-.35 5.32-1.72 7.69-1.56 2.71-4.01 4.07-7.04 4.51-.31.04-.6.13-.91.19zm-7.21-7.63c.37 2.2 1.54 3.8 3.34 4.95 3.03 1.93 7.77 1.82 10.65-.25 2.62-1.88 4.39-6.8 3.61-10.02-.2-.83-.62-1.43-1.56-1.58-.75-.12-1.49-.34-2.24-.51-1.77-.41-3.53-.86-5.31-1.19-1.17-.22-1.86.21-2.16 1.15-.36 1.12-.04 1.9 1.06 2.45.5.25 1.05.42 1.6.55 1.4.34 2.82.65 4.23.96.44.1.93.24.76.78-.08.23-.6.45-.91.45-2.41-.02-3.61.96-3.95 3.3-.07.48-.02 1.07-.75.97-.65-.09-.48-.66-.47-1.1.01-.22.06-.45.1-.67.24-1.27.89-2.3 2.05-3.1-1-.29-1.9-.42-2.67-.8-.82-.42-1.01.33-1.48.56-.48.24-.29.59-.2.94.32 1.29-.22 2.58-1.37 3.3-1.08.67-2.49.54-3.47-.34-.29-.26-.57-.54-.86-.8m14.3-8.57c.43-2.14.84-4.16 1.25-6.19.5-2.5 1.01-5 1.5-7.5.29-1.46-.63-2.59-1.92-2.38-.92.15-1.42.73-1.67 1.6-.84 2.92-1.69 5.83-2.54 8.74-.19.65-.34 1.32-.59 1.95-.11.26-.42.53-.68.59-.15.03-.42-.35-.57-.59-.1-.16-.11-.38-.15-.57-.78-3.34-1.56-6.68-2.35-10.02-.28-1.19-1.09-1.81-2.1-1.64-.91.15-1.48 1.16-1.34 2.33.45 3.71.87 7.43 1.39 11.14.11.79.55 1.54.89 2.45 1.32-1.37 2.69-1.39 4.14-1.04 1.53.39 3.07.74 4.74 1.13m-8.71 4c-.23-.66-.59-1.23-.57-1.77.04-.88-.32-1.51-.78-2.17-.47-.67-.91-1.37-1.38-2.04a6 6 0 0 0-.83-.96c-.53-.49-1.14-.61-1.8-.25-.65.36-.91.95-.8 1.65.08.49.26 1 .52 1.42.88 1.39 1.8 2.75 2.74 4.1.83 1.17 2.04 1.14 2.9.02m-6.53-2.62c-1.17-.01-2 .85-1.85 1.74.09.51.29 1.08.63 1.45 1.25 1.35 2.57 2.64 3.9 3.92.52.5 1.18.57 1.82.22.68-.36 1.06-.93.99-1.73-.04-.53-.25-.89-.86-.96-.91-.1-1.56-.62-2.05-1.37-.58-.88-1.14-1.77-1.77-2.6-.24-.34-.65-.55-.81-.67" id="yfTVUt.tif"/>
    <circle class="st1" cx="65.25" cy="52.46" r="1.31"/>
  </svg>