<svg viewBox="0 0 46 14" xmlns="http://www.w3.org/2000/svg">
    <path fill="#0058A0"
        d="M16.074 13.793 18.381.259h3.708L19.78 13.793zM33.16.57C32.432.285 31.292 0 29.84 0c-3.655 0-6.221 1.84-6.221 4.46-.026 1.944 1.84 3.033 3.24 3.68 1.426.675 1.919 1.09 1.919 1.686 0 .907-1.141 1.322-2.204 1.322-1.478 0-2.255-.207-3.474-.7l-.467-.207-.518 3.033c.855.389 2.463.7 4.122.726 3.889 0 6.404-1.815 6.43-4.615.026-1.53-.96-2.722-3.086-3.681-1.296-.623-2.074-1.037-2.074-1.685 0-.57.674-1.167 2.1-1.167 1.219-.026 2.074.233 2.749.518l.337.156z" />
    <path
        d="M42.622.26H39.77c-.881 0-1.555.233-1.944 1.114l-5.47 12.393h3.863s.622-1.66.777-2.023h4.719c.104.467.44 2.023.44 2.023h3.423zM38.06 8.995c.311-.777 1.478-3.785 1.478-3.785-.026.026.311-.778.493-1.296l.259 1.166s.7 3.241.855 3.915z"
        fill="#0058A0" fill-rule="nonzero" />
    <path
        d="M12.989.26 9.385 9.488l-.389-1.867c-.674-2.178-2.774-4.51-5.107-5.678l3.291 11.85h3.915L16.904.259z"
        fill="#0058A0" />
    <path
        d="M6.04.26H.079L.026.543c4.64 1.115 7.7 3.812 8.97 7.078L7.7 1.4C7.467.544 6.819.285 6.04.26"
        fill="#FAA61A" />
</svg>