<svg xmlns="http://www.w3.org/2000/svg" viewBox="0 0 39.83 24.31">
    <path fill="currentColor" d="M38.71 18.82h-.14v.12h.16c.01 0-.02-.1-.02-.12" />
    <path fill="currentColor"
        d="M38.82 18.56a.4.4 0 0 0-.19 0 .4.4 0 0 0-.18 0 .3.3 0 0 0-.15.15.45.45 0 0 0 0 .19.5.5 0 0 0 0 .2.4.4 0 0 0 .14.14.36.36 0 0 0 .2.06.35.35 0 0 0 .19-.06.4.4 0 0 0 .17-.14.5.5 0 0 0 .05-.2.4.4 0 0 0-.05-.19.43.43 0 0 0-.18-.15m-.09.56v-.07a.24.24 0 0 0-.08-.09v.18h-.06v-.44h.24a.08.08 0 0 1 .07.1.1.1 0 0 1 0 .08.09.09 0 0 1-.08 0 .2.2 0 0 1 .06.08l.05.08Zm-.18-4.33h-.14v.13h.16a.08.08 0 0 0-.02-.13" />
    <path fill="currentColor"
        d="M38.63 14.6a.28.28 0 0 0-.32 0 .23.23 0 0 0-.12.12.3.3 0 0 0 0 .16.3.3 0 0 0 0 .16.5.5 0 0 0 .12.13.4.4 0 0 0 .16 0 .5.5 0 0 0 .16 0 .3.3 0 0 0 .12-.13.3.3 0 0 0 0-.16.3.3 0 0 0 0-.16.23.23 0 0 0-.12-.12m-.06.5v-.07s-.05-.09-.07-.1h-.09v.18h-.11v-.43h.25a.07.07 0 0 1 .05 0 .07.07 0 0 1 0 .06.1.1 0 0 1 0 .08.2.2 0 0 1-.09 0 .3.3 0 0 1 .06.08v.09Z" />
    <path fill="currentColor"
        d="M27.91 0a11.77 11.77 0 0 0-8 3.14 11.75 11.75 0 0 0-8-3.14h-.08A12.05 12.05 0 0 0 0 12.16a12 12 0 0 0 11.92 12.15 11.75 11.75 0 0 0 8-3.14 13 13 0 0 1-1.22-1.33h2.46a10.7 10.7 0 0 1-1.21 1.3 11.72 11.72 0 0 0 8 3.14 12 12 0 0 0 11.88-12.12A12 12 0 0 0 27.91 0m-9.08 4.4h2.26A11 11 0 0 1 22 5.7h-4a15 15 0 0 1 .83-1.3M17.27 7h5.44a14 14 0 0 1 .51 1.3h-6.59c.06-.15.29-.65.64-1.3m-12.4 8.25.72-4.64L4 15.25h-.92L3 10.61l-.8 4.64H1l1-6.16h1.84l.07 3.78 1.25-3.78h2l-1 6.16Zm4.33 0v-.49a1.66 1.66 0 0 1-1.3.59A1.22 1.22 0 0 1 6.71 14c0-1.49 1.15-2 2.29-2h.55a.9.9 0 0 0 0-.32c0-.39-.35-.45-.82-.45a3.9 3.9 0 0 0-1.38.23l.18-1.12a4.4 4.4 0 0 1 1.54-.28 1.51 1.51 0 0 1 1.74 1.56l-.5 3.56Zm4.72-1.57A1.65 1.65 0 0 1 12 15.32a3.9 3.9 0 0 1-1.42-.16l.16-1.16a4.2 4.2 0 0 0 1.13.2c.34 0 .79 0 .79-.45 0-.63-1.59-.48-1.59-2 0-1.31.95-1.69 1.89-1.69a6 6 0 0 1 1.17.1L14 11.37h-.87c-.45 0-.69.1-.69.42-.03.59 1.48.28 1.48 1.88Zm2 .45h.33l-.16 1.1a3 3 0 0 1-1 .17c-.59 0-1-.33-1-1.09 0-.52.72-4.74.75-4.77h1.26l-.12.75h.63l-.16 1.22h-.68l-.35 2.25c-.03.12.02.36.46.36Zm2.79-4A1.72 1.72 0 0 1 20.48 12a9 9 0 0 1-.17 1.18h-2.57s-.24 1 1.12 1a3.9 3.9 0 0 0 1.35-.32L20 15.14a3.2 3.2 0 0 1-1.34.21 2 2 0 0 1-2.19-2.26c-.02-1.59.93-2.99 2.2-2.99ZM22 18.59h-4.2a15 15 0 0 1-.7-1.3h5.63a13 13 0 0 1-.73 1.3m-.28-3.33h-1.3l.79-5h1.18l-.11.72s.42-.79 1-.79a1 1 0 0 1 .24 0 4.9 4.9 0 0 0-.47 1.5c-.86-.31-.93 1.43-1.3 3.57Zm5-.08a5.7 5.7 0 0 1-1.11.18c-1.51 0-2.28-1.06-2.28-2.68 0-2.43 1.42-3.73 2.89-3.73a4.5 4.5 0 0 1 1.43.32l-.21 1.37a2.23 2.23 0 0 0-1.16-.37c-.87 0-1.64.84-1.64 2.37 0 .75.36 1.45 1.26 1.45a3 3 0 0 0 1.05-.32Zm3.06.07v-.5a1.66 1.66 0 0 1-1.3.59 1.22 1.22 0 0 1-1.2-1.34c0-1.44 1.16-1.92 2.25-1.92h.55a.8.8 0 0 0 0-.32c0-.39-.34-.45-.82-.45a3.9 3.9 0 0 0-1.38.23l.18-1.12a4.4 4.4 0 0 1 1.54-.28 1.51 1.51 0 0 1 1.75 1.56l-.5 3.56Zm2.64 0H31.1l.79-5h1.19L33 11s.43-.79 1-.79a1.2 1.2 0 0 1 .25 0 4.9 4.9 0 0 0-.47 1.5c-.94-.33-1 1.41-1.37 3.55Zm3.88 0 .06-.46a1.57 1.57 0 0 1-1.18.54c-1.06 0-1.58-1-1.58-2.1 0-1.64 1-3.08 2.14-3.08a1.7 1.7 0 0 1 1.22.68l.28-1.73h1.26l-1 6.16Zm2.51-.18a.34.34 0 0 1-.14.15.39.39 0 0 1-.38 0 .34.34 0 0 1-.14-.15.32.32 0 0 1 0-.19.37.37 0 0 1 0-.2.32.32 0 0 1 .14-.14.34.34 0 0 1 .19 0 .32.32 0 0 1 .19 0 .32.32 0 0 1 .14.14.4.4 0 0 1 .06.2.33.33 0 0 1-.07.19Z" />
    <path fill="currentColor"
        d="M8 13.77a.46.46 0 0 0 .49.49c.77 0 .93-1 .9-1.24a1 1 0 0 0-.28 0c-.98-.02-1.11.4-1.11.75m28-2.37c-.56 0-1 .66-1 1.66 0 .62.21 1 .67 1 .69 0 1-.92 1-1.6S36.4 11.4 36 11.4m-17.32-.14c-.69 0-.83.8-.83.89h1.41c0-.07.13-.89-.58-.89m9.84 2.51a.46.46 0 0 0 .5.49c.76 0 .92-1 .89-1.24a1 1 0 0 0-.27 0c-.93-.02-1.12.4-1.12.75" />
</svg>