<svg xmlns="http://www.w3.org/2000/svg" viewBox="0 0 53.97 14.85">
    <g data-name="Ebene 2">
        <path
            d="M16.76 3.73a5.46 5.46 0 0 0-2.63-.48 12 12 0 0 0-1.77.14c-.44.07-.49.08-.76.14a.88.88 0 0 0-.65.69l-.18.78c-.1.48.18.46.29.42a7 7 0 0 1 .88-.27A6 6 0 0 1 13.31 5a3.6 3.6 0 0 1 1.34.19.67.67 0 0 1 .44.68v.21l-.21.13c-.84 0-1.44.13-2.17.24a6.6 6.6 0 0 0-1.86.52 2.9 2.9 0 0 0-1.27 1 2.8 2.8 0 0 0-.44 1.53 1.84 1.84 0 0 0 .6 1.42 2.22 2.22 0 0 0 1.55.54 5 5 0 0 0 .92-.09l.71-.25.6-.34.56-.37-.06.24a.44.44 0 0 0 .39.56h1.39a.78.78 0 0 0 .63-.56L17.51 6l.06-.38v-.36a1.58 1.58 0 0 0-.81-1.53M14.39 9l-.23.31-.58.3a2.1 2.1 0 0 1-.77.17 1.7 1.7 0 0 1-.81-.13l-.29-.56a1.1 1.1 0 0 1 .22-.73l.62-.43a6 6 0 0 1 1-.23l1.09-.12.1.18c-.07.11-.26.91-.35 1.24M53.86.52l-.35-.15-.27.06-.26.18-.15-.18-.25-.05-.24.05-.22.15V.41h-.24v1.46h.24V.78l.19-.12.2-.05.17.03.08.08.03.14.01.18v.83h.24V.86l-.01-.07.21-.13.2-.05.16.03.08.08.03.14.02.18v.83h.24V.93zM9.67 2.42a2.1 2.1 0 0 0-.8-.88 3.8 3.8 0 0 0-1.28-.48A11 11 0 0 0 5.86.92H2.79a.77.77 0 0 0-.71.57L0 10.64a.44.44 0 0 0 .44.57h1.49a.76.76 0 0 0 .71-.57l.5-2.22a.76.76 0 0 1 .7-.57h.43a6.83 6.83 0 0 0 4.18-1.12 3.51 3.51 0 0 0 1.51-3 2.9 2.9 0 0 0-.29-1.31m-3.17 3a3 3 0 0 1-1.86.49h-.36a.44.44 0 0 1-.44-.57l.44-1.94A.75.75 0 0 1 5 2.82h.48a2.35 2.35 0 0 1 1.28.29 1 1 0 0 1 .4.89 1.61 1.61 0 0 1-.66 1.41Zm36.96-1.69a5.6 5.6 0 0 0-2.63-.47 10.6 10.6 0 0 0-1.77.14 6 6 0 0 0-.76.14.85.85 0 0 0-.64.69l-.18.77c-.11.48.16.46.28.42s.38-.14.88-.26A6.5 6.5 0 0 1 40 5a3.5 3.5 0 0 1 1.33.19.68.68 0 0 1 .44.68v.21l-.21.14c-.84 0-1.45.13-2.17.23a6.7 6.7 0 0 0-1.86.53 2.9 2.9 0 0 0-1.27 1 2.8 2.8 0 0 0-.42 1.56 1.83 1.83 0 0 0 .6 1.42 2.23 2.23 0 0 0 1.55.54 3.7 3.7 0 0 0 .92-.09l.71-.24.61-.34.55-.38v.25a.44.44 0 0 0 .39.56h1.39a.75.75 0 0 0 .63-.56L44.21 6l.06-.39v-.36a1.59 1.59 0 0 0-.81-1.52M41.1 9l-.24.31-.58.3a2.1 2.1 0 0 1-.76.17 1.7 1.7 0 0 1-.84-.17l-.28-.51a1.14 1.14 0 0 1 .21-.74 1.55 1.55 0 0 1 .62-.43 6 6 0 0 1 1-.22l1.08-.12.11.18c-.05.11-.24.9-.32 1.23m7.43-8h-1.32a.74.74 0 0 0-.63.45l-.07.12-.07.29-1.84 8.55-.06.26a.41.41 0 0 0 .36.53h1.4a.77.77 0 0 0 .64-.46l.07-.11L49 1.6a.43.43 0 0 0-.47-.6M26.75 3.36h-1.76a1.26 1.26 0 0 0-.93.58L21.75 8h-.24l-.66-4a.8.8 0 0 0-.8-.59h-1.31a.43.43 0 0 0-.44.59s1 5.78 1.2 7.14c.09.76 0 .89 0 .89l-1.3 2.3c-.19.32-.09.57.23.57h1.52a1.19 1.19 0 0 0 .92-.57l5.84-10.12s.56-.86.04-.85m9.62-.91a2.36 2.36 0 0 0-.81-.88 3.5 3.5 0 0 0-1.28-.48A10 10 0 0 0 32.55 1h-3.07a.76.76 0 0 0-.7.57l-2.07 9.15a.43.43 0 0 0 .44.56h1.47a.76.76 0 0 0 .71-.57l.5-2.22a.75.75 0 0 1 .71-.56H31a6.9 6.9 0 0 0 4.2-1.13 3.55 3.55 0 0 0 1.49-3 3.14 3.14 0 0 0-.32-1.35m-3.17 3a3.16 3.16 0 0 1-1.86.49H31a.45.45 0 0 1-.45-.57L31 3.43a.77.77 0 0 1 .7-.57h.48a2.33 2.33 0 0 1 1.28.29 1 1 0 0 1 .43.89 1.68 1.68 0 0 1-.69 1.41m18.28-3.78-.12.02-.15-.03-.08-.08-.03-.11V.62h.49V.41h-.49V0h-.25v.41h-.16v.21h.16v.77l.12.39.33.12.14-.01.15-.03v-.22h-.01z"
            fill="currentColor" data-name="Ebene 1" />
    </g>
</svg>