<svg xmlns="http://www.w3.org/2000/svg" viewBox="0 0 49.52 15.68">
    <path
        d="M8.07 11.29a1.5 1.5 0 0 0-.42-.1H6.22a.38.38 0 0 0-.4.28l-1.37 3.81c-.07.2 0 .28.2.28h1.2a3.2 3.2 0 0 0 .75-.11A1.85 1.85 0 0 0 8 14.08a.66.66 0 0 0-.5-.89h.1A1.48 1.48 0 0 0 8.46 12a.62.62 0 0 0-.39-.71m-1 2.9a.86.86 0 0 1-.76.67 8 8 0 0 1-.83 0l.18-.5c.07-.22.15-.43.22-.65a.12.12 0 0 1 .12-.08h.76a.38.38 0 0 1 .29.56Zm.45-1.88a.87.87 0 0 1-.84.67h-.55c.14-.38.26-.73.39-1.09a.11.11 0 0 1 .09-.06h.6c.2 0 .35.22.29.48Zm17.92-7.6A5.5 5.5 0 0 0 25.08 7a2.19 2.19 0 0 0 1.51 2 4.2 4.2 0 0 0 2.67-.07A4.87 4.87 0 0 0 31.69 7a10 10 0 0 0 1.44-2.88 4.8 4.8 0 0 0 .27-2.09A2.07 2.07 0 0 0 32 .19 4 4 0 0 0 30.66 0a8 8 0 0 0-.81.12A5.1 5.1 0 0 0 27.3 1.6a8.15 8.15 0 0 0-1.86 3.11m2.35.57a9.3 9.3 0 0 1 .89-2.16 2.9 2.9 0 0 1 .76-.87 1.27 1.27 0 0 1 1-.22.52.52 0 0 1 .42.47 2.2 2.2 0 0 1-.11 1 11.4 11.4 0 0 1-1.07 2.74 3 3 0 0 1-.4.53 1.23 1.23 0 0 1-1 .41h-.18a.64.64 0 0 1-.6-.73 3.8 3.8 0 0 1 .29-1.17M5.75 9a7 7 0 0 0 1.14-.1 3.66 3.66 0 0 0 2-1 4 4 0 0 0 1.18-2.54 1.48 1.48 0 0 0-.33-1.16 2.07 2.07 0 0 0-.94-.58l-.92-.28a.51.51 0 0 1-.38-.54.53.53 0 0 1 .38-.49 2 2 0 0 1 .58-.09h3a.19.19 0 0 0 .19-.1 7.1 7.1 0 0 1 2-1.93l.07-.06h-6.1a2.67 2.67 0 0 0-1.95 1 5.6 5.6 0 0 0-1 2.24 1.33 1.33 0 0 0 .52 1.42 2.6 2.6 0 0 0 .94.46l.77.23a.48.48 0 0 1 .37.56.59.59 0 0 1-.43.52 3.5 3.5 0 0 1-.55.08H1c-.1 0-.14 0-.18.13-.2.52-.36.95-.52 1.39-.09.27-.19.54-.3.84zM4.5 11.17H4a.23.23 0 0 0-.21.18l-.66 1.86a9 9 0 0 1-.4 1 1.19 1.19 0 0 1-1.26.68.5.5 0 0 1-.47-.6 2.2 2.2 0 0 1 .13-.5c.28-.82.58-1.62.86-2.44.05-.13 0-.18-.1-.18H1.3c-.12 0-.18.07-.22.19-.3.84-.61 1.68-.9 2.52a3.2 3.2 0 0 0-.17.69.82.82 0 0 0 .54.94 6 6 0 0 0 .75.17A2.4 2.4 0 0 0 3.66 14c.33-.88.63-1.76 1-2.65-.01-.13-.03-.18-.16-.18m6.3.69h1.13c.43 0 .46 0 .58-.45a.2.2 0 0 0 0-.07c0-.15 0-.18-.14-.18h-2c-.29 0-.39.07-.49.35l-.72 2-.63 1.75c-.06.2 0 .28.19.28h2.09a.2.2 0 0 0 .16-.07 3.3 3.3 0 0 0 .2-.52c0-.06 0-.11-.1-.1H9.63c.13-.37.27-.75.41-1.12a.13.13 0 0 1 .11-.08h.93c.42 0 .45 0 .57-.44v-.08c0-.12 0-.16-.13-.16H10.3l.35-1c.02-.09.07-.11.15-.11M17.69 9h2.54c.08 0 .1-.05.12-.11.38-1.07.77-2.14 1.14-3.21a.21.21 0 0 1 .23-.16h2.06a.13.13 0 0 0 .15-.1c.19-.55.39-1.09.58-1.63a1 1 0 0 1 0-.12h-2.27v-.06l.3-.88a.6.6 0 0 1 .7-.5h2.47a.3.3 0 0 0 .29-.15A7 7 0 0 1 27.94.26l.19-.13h-5a3.3 3.3 0 0 0-1.17.19 3 3 0 0 0-1.82 1.9c-.79 2.19-1.57 4.4-2.36 6.6-.06.05-.07.1-.09.18m-14.2 1.36c-.12.31-.05.41.28.41a.61.61 0 0 0 .64-.62.17.17 0 0 0-.14-.2.59.59 0 0 0-.78.41m-1.49.2a.16.16 0 0 0 .13.19c.45.08.67 0 .8-.4s0-.41-.29-.41a.6.6 0 0 0-.64.62m21.28.77c0-.12 0-.16-.09-.17h-.44a.37.37 0 0 0-.34.22c-.61 1.06-1.23 2.12-1.85 3.18l-.07.11c.06-.56.13-1.11.19-1.67s.12-1.08.19-1.62c0-.15 0-.19-.16-.2h-.46a.45.45 0 0 0-.43.27L18 14.54l-.1.14a1 1 0 0 0 0-.15c.15-1.08.29-2.15.43-3.23 0-.09 0-.14-.1-.14h-.63a.19.19 0 0 0-.18.17c0 .1 0 .21-.05.31L17.1 14c0 .43-.09.87-.13 1.3 0 .2 0 .24.2.26a5 5 0 0 0 .55 0 .56.56 0 0 0 .54-.31c.5-.87 1-1.72 1.52-2.58l.07-.11c0 .51-.09 1-.14 1.49s-.09.83-.14 1.24c0 .21 0 .25.21.26a5 5 0 0 0 .56 0 .56.56 0 0 0 .52-.3c.75-1.24 1.52-2.47 2.28-3.71Zm13.64-.16h-.53a.29.29 0 0 0-.26.21c-.29.84-.59 1.67-.89 2.5a2.2 2.2 0 0 1-.29.54 1.15 1.15 0 0 1-1.17.48.46.46 0 0 1-.42-.51 2.2 2.2 0 0 1 .11-.55c.29-.83.59-1.65.88-2.47 0-.14 0-.19-.11-.19a3 3 0 0 0-.54 0c-.12 0-.19.08-.23.2-.24.69-.5 1.39-.74 2.08a8 8 0 0 0-.31 1 .86.86 0 0 0 .58 1.06 6 6 0 0 0 .74.15A2.39 2.39 0 0 0 36.05 14c.34-.88.64-1.77 1-2.66 0-.11-.05-.17-.13-.17m4.33 0a.28.28 0 0 0-.24.2c-.32.94-.66 1.89-1 2.83l-.05.12v-.06c-.05-.4-.09-.8-.15-1.2s-.17-1-.26-1.54c0-.26-.14-.35-.4-.35h-.4c-.33 0-.45.09-.57.41l-.72 2c-.21.6-.42 1.2-.64 1.8-.05.13 0 .18.11.19a4 4 0 0 0 .48 0 .23.23 0 0 0 .2-.17l.83-2.4c.1-.27.19-.54.28-.81 0 .19 0 .38.06.56.09.61.19 1.22.29 1.83 0 .23.07.46.12.69a.3.3 0 0 0 .33.28 4 4 0 0 0 .46 0 .45.45 0 0 0 .43-.32l1.39-3.91c0-.11 0-.17-.1-.17ZM40.89.15a2.23 2.23 0 0 1 .67.94 2.9 2.9 0 0 1 .12 1.14h1.59c-.4 1.14-.8 2.26-1.2 3.37L40.86 9h2.27a.16.16 0 0 0 .18-.12l2.31-6.48c0-.12.09-.17.22-.17h2.8c.11 0 .16 0 .19-.14.11-.33.24-.67.36-1l.33-.94Zm5.18 11.09a2.7 2.7 0 0 0-1.49-.09 3.45 3.45 0 0 0-2.64 3 1.2 1.2 0 0 0 1 1.48 3.93 3.93 0 0 0 2-.2.44.44 0 0 0 .25-.27l.63-1.78c.07-.2 0-.28-.2-.28H44.5c-.4 0-.42 0-.55.41v.09c0 .03 0 .18.14.18h.73a4 4 0 0 0-.24.7c-.07.35-.31.43-.61.45h-.26a.79.79 0 0 1-.79-1 3.6 3.6 0 0 1 .26-.85 1.9 1.9 0 0 1 2.82-.91.11.11 0 0 0 .19 0 2 2 0 0 0 .13-.27c.17-.43.13-.52-.25-.66" />
    <path
        d="M34.91 8.88c.21-.59.43-1.18.65-1.78.15-.39.29-.79.44-1.19s0 .1 0 .14c.22.93.44 1.86.65 2.79 0 .11.06.15.18.15h2.68a18 18 0 0 0-1.22-3.76c.21-.1.43-.19.63-.3A3.62 3.62 0 0 0 41 2.1a1.53 1.53 0 0 0-.79-1.57 3.1 3.1 0 0 0-1.52-.38h-3.23a.15.15 0 0 0-.16.12q-1.53 4.31-3.07 8.6a1 1 0 0 1 0 .14h2.56a.14.14 0 0 0 .12-.13m1.65-5.39.51-1.42c0-.08.06-.12.15-.11h.85c.28 0 .49.3.42.66a2.2 2.2 0 0 1-.32.76 1.48 1.48 0 0 1-1.23.68h-.61c.08-.17.15-.37.23-.57M25 11.86h1.14c.42 0 .45 0 .58-.44a.2.2 0 0 1 0-.08c0-.15 0-.18-.14-.18h-2a.39.39 0 0 0-.43.3l-1.35 3.8c-.08.23 0 .3.2.3h1.8c.43 0 .46 0 .58-.45 0-.16 0-.19-.14-.19H23.8c.13-.38.26-.76.4-1.13a.2.2 0 0 1 .12-.07h.94c.4 0 .42 0 .54-.41v-.09c0-.15 0-.18-.15-.18h-1.17l.34-1a.14.14 0 0 1 .18-.18m-6.31-7.69A4.84 4.84 0 0 0 19 2 2.08 2.08 0 0 0 17.63.21 3.8 3.8 0 0 0 16.24 0a8 8 0 0 0-.81.12 5 5 0 0 0-2.53 1.45A8.36 8.36 0 0 0 11 4.73a5.6 5.6 0 0 0-.35 2.21 2.16 2.16 0 0 0 1.52 2 4.26 4.26 0 0 0 2.88-.15A4.93 4.93 0 0 0 17.26 7a9.7 9.7 0 0 0 1.43-2.83m-2.33-.68a11.2 11.2 0 0 1-1.07 2.73 2 2 0 0 1-.7.75 1.3 1.3 0 0 1-1 .12.57.57 0 0 1-.45-.56 2 2 0 0 1 0-.21A5 5 0 0 1 13.45 5a7.8 7.8 0 0 1 .94-2.07 2.5 2.5 0 0 1 .61-.68A1.23 1.23 0 0 1 16 2a.51.51 0 0 1 .46.56 4 4 0 0 1-.1.93m-.54 7.77a1 1 0 0 0-.34-.07h-1.47a.39.39 0 0 0-.43.31c-.47 1.31-.93 2.62-1.4 3.92 0 .12 0 .17.1.17h.56a.23.23 0 0 0 .22-.19c.15-.44.31-.87.47-1.31s.11-.32.45-.29a.35.35 0 0 1 .35.29 2 2 0 0 1 .05.41v.94c0 .11.05.16.15.16H15c.35 0 .4-.06.38-.43s0-.64-.07-1a.79.79 0 0 0-.32-.67l.17-.06a1.76 1.76 0 0 0 1.14-1.32.68.68 0 0 0-.48-.86m-.49 1.11a.92.92 0 0 1-.78.7h-.68c.15-.42.29-.82.43-1.2a.1.1 0 0 1 .07-.06 5 5 0 0 1 .65 0c.28.1.38.27.31.56m16.78-1.09a2 2 0 0 0-.27-.11 1.8 1.8 0 0 0-.84-.06 1.92 1.92 0 0 0-1.64 1.45.81.81 0 0 0 .33.91c.14.1.3.18.45.27a2 2 0 0 1 .3.21.34.34 0 0 1 .09.42.81.81 0 0 1-.52.5 1.27 1.27 0 0 1-1.2-.23c-.14-.11-.21-.1-.29.07a2.5 2.5 0 0 0-.13.33c-.07.23 0 .3.17.42a1.84 1.84 0 0 0 .84.18h.27l.26-.05a2 2 0 0 0 1.6-1.5.76.76 0 0 0-.33-.93c-.13-.1-.28-.17-.42-.26a3 3 0 0 1-.31-.2.35.35 0 0 1-.12-.45.69.69 0 0 1 .56-.44 1.1 1.1 0 0 1 .88.23c.12.08.18.07.24-.06a4 4 0 0 0 .17-.47.16.16 0 0 0-.09-.23m-3.53-.11H28a.25.25 0 0 0-.21.19c-.31.89-.63 1.78-.95 2.67l-.48 1.34c-.05.14 0 .17.11.2h.58a.22.22 0 0 0 .18-.17c.48-1.35 1-2.7 1.45-4.05.04-.12 0-.18-.1-.18" />
</svg>