<svg xmlns="http://www.w3.org/2000/svg" viewBox="0 0 34.59 10.77">
    <g data-name="Ebene 2">
        <g fill="currentColor" data-name="Ebene 1">
            <path d="M6.57 5.55 5.62.94A1.13 1.13 0 0 0 4.39.09H0V.3a9 9 0 0 1 6.57 5.25" />
            <path
                d="M9.73.19 7 7.3l-.31-1.07a11.2 11.2 0 0 0-3.9-4.32l2.52 8.69h3L12.71.19Zm22.58 0h-2.17a1.39 1.39 0 0 0-1.47.87l-4.18 9.55h3s.48-1.28.59-1.56h3.6l.32 1.56h2.61Zm-3.46 6.72L30 4s.23-.6.37-1l.19.9.65 3Zm-6.52-2.54c-1-.48-1.59-.81-1.58-1.29s.51-.9 1.61-.9a5 5 0 0 1 2.1.4l.26.12.38-2.26A7.2 7.2 0 0 0 22.58 0c-2.78 0-4.74 1.41-4.75 3.44 0 1.5 1.39 2.34 2.46 2.84s1.46.83 1.46 1.29c0 .7-.88 1-1.68 1A5.8 5.8 0 0 1 17.42 8l-.36-.16-.4 2.33a9 9 0 0 0 3.13.56c3 0 4.88-1.4 4.9-3.57C24.7 6 24 5.11 22.33 4.37M13.85.18l-1.76 10.43h2.81L16.66.18z" />
        </g>
    </g>
</svg>